<svg version="1.1" id="Layer_1" xmlns="http://www.w3.org/2000/svg" xmlns:xlink="http://www.w3.org/1999/xlink" x="0px" y="0px"
	 width="100%" viewBox="0 0 278 248" enable-background="new 0 0 278 248" xml:space="preserve">
<path fill="#000000" opacity="1.000000" stroke="none" 
	d="
M191.000000,249.000000 
	C127.333344,249.000000 64.166679,249.000000 1.000017,249.000000 
	C1.000011,166.333344 1.000011,83.666702 1.000006,1.000039 
	C93.666634,1.000026 186.333267,1.000026 278.999939,1.000013 
	C278.999939,83.666626 278.999939,166.333252 278.999969,248.999939 
	C249.833328,249.000000 220.666672,249.000000 191.000000,249.000000 
M139.961929,209.876343 
	C139.973541,217.745163 139.905350,225.615799 140.085175,233.480774 
	C140.111328,234.623886 141.323898,235.739868 142.918320,236.998550 
	C183.465683,237.001831 224.013031,237.005432 264.560394,237.007187 
	C266.222107,237.007263 267.965607,237.279968 269.507141,236.844940 
	C270.167419,236.658615 270.407318,234.982651 270.974701,233.058182 
	C271.187805,226.962631 271.599854,220.864761 271.528290,214.772552 
	C271.493622,211.822998 270.551483,208.884094 270.048279,205.995010 
	C270.048279,205.995010 270.085938,205.946442 269.577332,205.237701 
	C266.763580,205.159958 263.949982,205.019974 261.136078,205.014130 
	C233.088959,204.955765 205.041794,204.919540 176.988602,204.995911 
	C176.988602,204.995911 177.107422,205.002060 177.024109,204.061951 
	C176.955368,191.018066 176.886612,177.974182 176.949585,164.517090 
	C176.949585,164.517090 177.018967,164.089005 177.474426,163.984100 
	C177.474426,163.984100 177.916214,163.831635 178.853958,163.978653 
	C204.075577,163.985138 229.297226,164.008484 254.518723,163.956116 
	C256.026459,163.952988 257.532928,163.344131 258.996246,163.001846 
	C258.996246,163.001846 259.024109,163.039047 259.764923,162.581055 
	C259.841858,153.259384 259.969299,143.937393 259.907837,134.616638 
	C259.902466,133.797668 258.660034,132.986847 257.065033,132.032959 
	C232.041138,132.074158 207.017258,132.115356 181.250229,132.020905 
	C180.498657,132.063248 179.747101,132.105591 178.458588,131.933441 
	C178.002762,131.593353 177.546951,131.253281 177.020630,129.992401 
	C177.050339,119.321114 177.080048,108.649834 177.023804,97.980965 
	C177.023804,97.980965 177.026321,98.066910 177.959488,98.004021 
	C184.302277,97.947754 190.645081,97.891495 197.917999,97.971230 
	C211.612640,97.924805 225.307297,97.878380 239.930099,97.967163 
	C245.679276,97.977417 251.431519,98.102859 257.176392,97.950737 
	C260.179657,97.871223 263.169983,97.303856 266.401306,96.962746 
	C266.401306,96.962746 266.601562,96.839348 267.538116,96.765839 
	C267.685181,87.506157 267.920868,78.245735 267.844666,68.987892 
	C267.836914,68.043472 265.957001,67.114456 264.156769,66.016243 
	C260.473419,65.987877 256.790100,65.959511 252.592972,65.226082 
	C245.198181,65.149803 237.802780,64.989906 230.408936,65.043663 
	C227.901550,65.061890 225.398056,65.619667 221.971573,65.991898 
	C216.005188,65.963913 210.038803,65.935921 203.563675,65.208931 
	C192.545639,65.141029 181.527618,65.052574 170.509537,65.045059 
	C169.646973,65.044472 168.783997,65.609032 167.082581,65.985649 
	C159.733383,66.044212 152.384171,66.102776 144.333069,65.995995 
	C143.857605,65.924095 143.382156,65.852203 142.813553,65.088524 
	C141.776886,62.838654 141.148666,60.256653 139.634766,58.394840 
	C131.968246,48.966496 122.086349,42.742310 110.523544,39.122833 
	C99.619034,35.709415 88.523262,35.384918 77.139694,35.778610 
	C67.095284,36.125992 57.296185,36.831982 47.775932,40.097702 
	C36.231850,44.057663 26.857985,51.411575 20.229574,61.241753 
	C12.527716,72.663887 9.616521,85.754311 12.036231,99.726006 
	C13.932573,110.675705 17.450121,120.880821 26.591873,127.806076 
	C37.613720,136.155594 50.644596,139.983795 63.956112,143.089050 
	C78.500824,146.481995 93.045563,149.966553 107.363869,154.180466 
	C111.478539,155.391434 115.766869,158.564056 118.315659,162.050690 
	C125.121414,171.360703 117.177673,184.994003 107.057419,187.774368 
	C99.979424,189.718933 92.645576,190.992783 85.341316,191.797653 
	C71.144653,193.361954 47.847618,186.026627 46.050861,167.453827 
	C45.928001,166.183838 43.264462,164.228439 41.730572,164.178238 
	C32.245083,163.867722 22.744209,164.065094 13.249555,163.975708 
	C10.012348,163.945221 9.213401,165.066742 9.240565,168.449982 
	C9.401808,188.531815 22.879751,209.039642 41.876080,217.030350 
	C63.880672,226.286453 86.602806,227.174500 109.806519,222.589966 
	C119.948059,220.586212 128.715439,215.880981 137.607803,209.940903 
	C138.314911,209.613037 139.022034,209.285172 139.961929,209.876343 
z"/>
<path fill="#293939" opacity="1.000000" stroke="none" 
	d="
M137.028320,210.051331 
	C128.715439,215.880981 119.948059,220.586212 109.806519,222.589966 
	C86.602806,227.174500 63.880672,226.286453 41.876080,217.030350 
	C22.879751,209.039642 9.401808,188.531815 9.240565,168.449982 
	C9.213401,165.066742 10.012348,163.945221 13.249555,163.975708 
	C22.744209,164.065094 32.245083,163.867722 41.730572,164.178238 
	C43.264462,164.228439 45.928001,166.183838 46.050861,167.453827 
	C47.847618,186.026627 71.144653,193.361954 85.341316,191.797653 
	C92.645576,190.992783 99.979424,189.718933 107.057419,187.774368 
	C117.177673,184.994003 125.121414,171.360703 118.315659,162.050690 
	C115.766869,158.564056 111.478539,155.391434 107.363869,154.180466 
	C93.045563,149.966553 78.500824,146.481995 63.956112,143.089050 
	C50.644596,139.983795 37.613720,136.155594 26.591873,127.806076 
	C17.450121,120.880821 13.932573,110.675705 12.036231,99.726006 
	C9.616521,85.754311 12.527716,72.663887 20.229574,61.241753 
	C26.857985,51.411575 36.231850,44.057663 47.775932,40.097702 
	C57.296185,36.831982 67.095284,36.125992 77.139694,35.778610 
	C88.523262,35.384918 99.619034,35.709415 110.523544,39.122833 
	C122.086349,42.742310 131.968246,48.966496 139.634766,58.394840 
	C141.148666,60.256653 141.776886,62.838654 142.530579,65.525146 
	C141.740768,66.639038 141.233948,67.316307 140.593979,68.177795 
	C140.543594,68.929214 140.626373,69.496422 140.744080,70.427460 
	C140.764282,71.521347 140.749588,72.251419 140.563354,73.351723 
	C139.912369,80.074883 139.432938,86.427803 138.527100,92.841278 
	C132.644592,93.262825 127.182777,93.555161 121.734146,94.006500 
	C117.356255,94.369156 114.972115,92.532753 113.913017,88.224197 
	C112.522507,82.567406 109.709015,77.600090 104.327202,74.850548 
	C89.076195,67.058876 73.411659,66.348503 57.873837,73.637718 
	C49.169750,77.721031 46.289391,86.384155 49.209431,95.551842 
	C51.399403,102.427437 56.584553,104.376343 63.052212,105.730408 
	C77.813568,108.820831 92.469887,112.447701 107.089798,116.167435 
	C117.822426,118.898140 128.801773,121.144455 138.030029,128.346771 
	C138.651382,131.868713 139.282043,134.936417 139.928162,138.472260 
	C139.932907,158.620331 139.922241,178.300232 139.597565,198.155746 
	C138.531799,202.238007 137.780060,206.144669 137.028320,210.051331 
z"/>
<path fill="#FE5757" opacity="1.000000" stroke="none" 
	d="
M266.601562,96.839348 
	C266.601562,96.839348 266.401306,96.962746 265.798767,96.932487 
	C256.463409,96.936928 247.730606,96.971619 238.529449,96.992004 
	C224.369476,96.972641 210.677872,96.967567 196.629333,96.760315 
	C190.880707,96.389488 185.488281,96.112251 180.097931,96.147575 
	C179.069901,96.154320 178.049988,97.395348 177.026321,98.066910 
	C177.026321,98.066910 177.023804,97.980965 176.825256,98.324539 
	C176.413330,107.360275 176.122177,116.051727 176.043854,124.745110 
	C176.025360,126.797821 176.722946,128.856995 177.091125,130.913193 
	C177.546951,131.253281 178.002762,131.593353 178.998901,132.207901 
	C180.364090,132.651566 181.188980,132.820755 182.481628,132.997101 
	C207.954391,133.041763 232.959412,133.079269 258.134827,133.486237 
	C258.544861,143.583466 258.784485,153.311264 259.024109,163.039047 
	C259.024109,163.039047 258.996246,163.001846 258.547882,162.976059 
	C231.371735,162.961914 204.643967,162.973557 177.741943,163.148010 
	C177.341797,163.539886 177.158890,163.799286 177.018967,164.089005 
	C177.018967,164.089005 176.949585,164.517090 176.701477,165.100937 
	C176.340271,178.046707 176.209717,190.408569 176.157440,202.770752 
	C176.154297,203.513168 176.776306,204.258224 177.107422,205.002060 
	C177.107422,205.002060 176.988602,204.995911 177.330688,205.184875 
	C179.300156,205.581665 180.927429,205.969498 182.554962,205.970612 
	C211.731949,205.990402 240.908936,205.963409 270.085938,205.946442 
	C270.085938,205.946442 270.048279,205.995010 270.027893,206.440552 
	C270.011017,215.929260 270.014526,224.972397 269.831604,234.355499 
	C267.453918,235.129990 265.263611,235.937943 263.071198,235.943726 
	C222.699768,236.050232 182.328064,236.060822 141.761719,235.720428 
	C141.428253,227.900711 141.289474,220.452255 141.218048,212.886322 
	C141.370224,212.496597 141.330353,212.241394 141.174133,211.662354 
	C141.190094,210.866837 141.197754,210.412231 141.362518,209.660461 
	C141.669281,208.234253 141.818939,207.105164 141.974304,205.508942 
	C141.981140,180.034546 141.982285,155.027298 141.871521,129.808319 
	C141.596146,129.320526 141.402435,129.067581 141.140076,128.650314 
	C141.101685,128.462814 141.049026,128.081924 141.065277,127.608322 
	C141.055450,115.745453 141.029373,104.356171 141.069916,92.737961 
	C141.136536,92.509033 141.269058,92.050964 141.436035,91.672318 
	C141.739151,85.701889 141.571121,80.079071 142.137268,74.531174 
	C142.428986,71.672432 144.027145,68.947006 145.034973,66.161339 
	C152.384171,66.102776 159.733383,66.044212 167.973358,65.973068 
	C180.600235,65.942970 192.336319,65.925453 204.072418,65.907928 
	C210.038803,65.935921 216.005188,65.963913 222.906647,65.983276 
	C233.596741,65.960152 243.351746,65.945648 253.106750,65.931137 
	C256.790100,65.959511 260.473419,65.987877 264.623352,66.361679 
	C265.382843,67.161469 265.675781,67.615822 265.978271,68.414536 
	C266.280365,69.843094 266.572845,70.927315 266.866638,72.454193 
	C266.875977,75.258774 266.883942,77.620689 266.704163,80.346596 
	C266.601105,85.808395 266.685822,90.906219 266.723450,96.211891 
	C266.676392,96.419746 266.601562,96.839348 266.601562,96.839348 
z"/>
<path fill="#D76661" opacity="1.000000" stroke="none" 
	d="
M141.956421,236.091705 
	C182.328064,236.060822 222.699768,236.050232 263.071198,235.943726 
	C265.263611,235.937943 267.453918,235.129990 270.036591,234.347519 
	C270.427979,233.999603 270.838257,233.983536 270.838257,233.983536 
	C270.407318,234.982651 270.167419,236.658615 269.507141,236.844940 
	C267.965607,237.279968 266.222107,237.007263 264.560394,237.007187 
	C224.013031,237.005432 183.465683,237.001831 142.444351,236.739349 
	C141.970383,236.480148 141.956421,236.091705 141.956421,236.091705 
z"/>
<path fill="#D2625A" opacity="1.000000" stroke="none" 
	d="
M269.831635,205.592072 
	C240.908936,205.963409 211.731949,205.990402 182.554962,205.970612 
	C180.927429,205.969498 179.300156,205.581665 177.333694,205.125458 
	C205.041794,204.919540 233.088959,204.955765 261.136078,205.014130 
	C263.949982,205.019974 266.763580,205.159958 269.831635,205.592072 
z"/>
<path fill="#C76F68" opacity="1.000000" stroke="none" 
	d="
M177.916183,162.985199 
	C204.643967,162.973557 231.371735,162.961914 258.569763,162.983704 
	C257.532928,163.344131 256.026459,163.952988 254.518723,163.956116 
	C229.297226,164.008484 204.075577,163.985138 178.390244,163.693512 
	C177.926529,163.408386 177.916183,162.985199 177.916183,162.985199 
z"/>
<path fill="#CD746B" opacity="1.000000" stroke="none" 
	d="
M257.964417,133.116776 
	C232.959412,133.079269 207.954391,133.041763 182.477814,132.788773 
	C182.006256,132.573288 181.993362,132.156555 181.993362,132.156555 
	C207.017258,132.115356 232.041138,132.074158 257.522766,132.338760 
	C257.980469,132.644562 257.964417,133.116776 257.964417,133.116776 
z"/>
<path fill="#CF5E5E" opacity="1.000000" stroke="none" 
	d="
M196.986252,96.962494 
	C210.677872,96.967567 224.369476,96.972641 238.531525,97.198380 
	C239.001938,97.419060 239.001938,97.831947 239.001938,97.831947 
	C225.307297,97.878380 211.612640,97.924805 197.454376,97.685043 
	C196.990753,97.398857 196.986252,96.962502 196.986252,96.962494 
z"/>
<path fill="#D7655F" opacity="1.000000" stroke="none" 
	d="
M177.065765,204.532013 
	C176.776306,204.258224 176.154297,203.513168 176.157440,202.770752 
	C176.209717,190.408569 176.340271,178.046707 176.635605,165.307541 
	C176.886612,177.974182 176.955368,191.018066 177.065765,204.532013 
z"/>
<path fill="#EE5E5D" opacity="1.000000" stroke="none" 
	d="
M196.629333,96.760315 
	C196.986252,96.962502 196.990753,97.398857 196.989319,97.617043 
	C190.645081,97.891495 184.302277,97.947754 177.492905,98.035461 
	C178.049988,97.395348 179.069901,96.154320 180.097931,96.147575 
	C185.488281,96.112251 190.880707,96.389488 196.629333,96.760315 
z"/>
<path fill="#CB6767" opacity="1.000000" stroke="none" 
	d="
M203.818054,65.558434 
	C192.336319,65.925453 180.600235,65.942970 168.392670,65.935707 
	C168.783997,65.609032 169.646973,65.044472 170.509537,65.045059 
	C181.527618,65.052574 192.545639,65.141029 203.818054,65.558434 
z"/>
<path fill="#333435" opacity="1.000000" stroke="none" 
	d="
M137.318054,209.996124 
	C137.780060,206.144669 138.531799,202.238007 139.665955,198.432343 
	C140.274185,199.049988 140.500000,199.566620 140.763855,200.472565 
	C140.776688,201.905746 140.751495,202.949600 140.569992,204.297150 
	C140.276825,205.727783 140.139954,206.854736 140.011261,208.275146 
	C140.093781,208.749588 140.168152,208.930588 140.100830,209.117416 
	C139.959152,209.123230 139.729156,208.957321 139.729156,208.957306 
	C139.022034,209.285172 138.314911,209.613037 137.318054,209.996124 
z"/>
<path fill="#C26B69" opacity="1.000000" stroke="none" 
	d="
M266.891907,79.982613 
	C266.883942,77.620689 266.875977,75.258774 266.900238,72.102768 
	C266.611206,70.229187 266.289948,69.149689 265.968689,68.070183 
	C265.675781,67.615822 265.382843,67.161469 265.017883,66.442696 
	C265.957001,67.114456 267.836914,68.043472 267.844666,68.987892 
	C267.920868,78.245735 267.685181,87.506157 267.069824,96.802597 
	C266.601562,96.839348 266.676392,96.419746 266.787048,95.750259 
	C266.895813,90.048050 266.893860,85.015335 266.891907,79.982613 
z"/>
<path fill="#D86661" opacity="1.000000" stroke="none" 
	d="
M177.055878,130.452789 
	C176.722946,128.856995 176.025360,126.797821 176.043854,124.745110 
	C176.122177,116.051727 176.413330,107.360275 176.868225,98.323334 
	C177.080048,108.649834 177.050339,119.321114 177.055878,130.452789 
z"/>
<path fill="#C56A66" opacity="1.000000" stroke="none" 
	d="
M258.134827,133.486237 
	C257.964417,133.116776 257.980469,132.644562 257.986328,132.408401 
	C258.660034,132.986847 259.902466,133.797668 259.907837,134.616638 
	C259.969299,143.937393 259.841858,153.259384 259.394531,162.810059 
	C258.784485,153.311264 258.544861,143.583466 258.134827,133.486237 
z"/>
<path fill="#DC6162" opacity="1.000000" stroke="none" 
	d="
M144.684021,66.078667 
	C144.027145,68.947006 142.428986,71.672432 142.137268,74.531174 
	C141.571121,80.079071 141.739151,85.701889 141.352097,91.205994 
	C140.979095,85.072708 140.856979,79.027100 140.734894,72.981483 
	C140.749588,72.251419 140.764282,71.521347 140.823761,70.085327 
	C140.821396,68.917442 140.774261,68.455505 140.727142,67.993576 
	C141.233948,67.316307 141.740768,66.639038 142.577148,65.871040 
	C143.382156,65.852203 143.857605,65.924095 144.684021,66.078667 
z"/>
<path fill="#CE6262" opacity="1.000000" stroke="none" 
	d="
M252.849854,65.578613 
	C243.351746,65.945648 233.596741,65.960152 223.367264,65.952766 
	C225.398056,65.619667 227.901550,65.061890 230.408936,65.043663 
	C237.802780,64.989906 245.198181,65.149803 252.849854,65.578613 
z"/>
<path fill="#EB6566" opacity="1.000000" stroke="none" 
	d="
M270.906494,233.520859 
	C270.838257,233.983536 270.427979,233.999603 270.223022,234.007568 
	C270.014526,224.972397 270.011017,215.929260 270.013855,206.413239 
	C270.551483,208.884094 271.493622,211.822998 271.528290,214.772552 
	C271.599854,220.864761 271.187805,226.962631 270.906494,233.520859 
z"/>
<path fill="#C36D65" opacity="1.000000" stroke="none" 
	d="
M141.761719,235.720428 
	C141.956421,236.091705 141.970383,236.480148 141.978912,236.674286 
	C141.323898,235.739868 140.111328,234.623886 140.085175,233.480774 
	C139.905350,225.615799 139.973541,217.745163 139.845551,209.416840 
	C139.729156,208.957321 139.959152,209.123230 140.273834,209.242538 
	C140.798782,209.555634 141.004410,209.754227 141.205414,209.957611 
	C141.197754,210.412231 141.190094,210.866837 141.155838,211.911987 
	C141.136398,212.669617 141.143539,212.836700 141.150696,213.003799 
	C141.289474,220.452255 141.428253,227.900711 141.761719,235.720428 
z"/>
<path fill="#C16A6A" opacity="1.000000" stroke="none" 
	d="
M239.466019,97.899551 
	C239.001938,97.831947 239.001938,97.419060 238.999878,97.212685 
	C247.730606,96.971619 256.463409,96.936928 265.681213,96.929520 
	C263.169983,97.303856 260.179657,97.871223 257.176392,97.950737 
	C251.431519,98.102859 245.679276,97.977417 239.466019,97.899551 
z"/>
<path fill="#EE5F5E" opacity="1.000000" stroke="none" 
	d="
M181.621796,132.088730 
	C181.993362,132.156555 182.006256,132.573288 182.010056,132.781616 
	C181.188980,132.820755 180.364090,132.651566 179.267365,132.315155 
	C179.747101,132.105591 180.498657,132.063248 181.621796,132.088730 
z"/>
<path fill="#EE5F5D" opacity="1.000000" stroke="none" 
	d="
M177.741943,163.148010 
	C177.916183,162.985199 177.926529,163.408386 177.921371,163.620010 
	C177.916214,163.831635 177.474426,163.984100 177.246704,164.036560 
	C177.158890,163.799286 177.341797,163.539886 177.741943,163.148010 
z"/>
<path fill="#000000" opacity="1.000000" stroke="none" 
	d="
M138.039352,127.892517 
	C128.801773,121.144455 117.822426,118.898140 107.089798,116.167435 
	C92.469887,112.447701 77.813568,108.820831 63.052212,105.730408 
	C56.584553,104.376343 51.399403,102.427437 49.209431,95.551842 
	C46.289391,86.384155 49.169750,77.721031 57.873837,73.637718 
	C73.411659,66.348503 89.076195,67.058876 104.327202,74.850548 
	C109.709015,77.600090 112.522507,82.567406 113.913017,88.224197 
	C114.972115,92.532753 117.356255,94.369156 121.734146,94.006500 
	C127.182777,93.555161 132.644592,93.262825 138.804352,92.910645 
	C139.694611,92.953354 139.881226,92.987251 140.048218,93.487320 
	C139.953766,105.317558 139.878952,116.681633 139.509567,128.024200 
	C138.823120,127.965958 138.431229,127.929237 138.039352,127.892517 
z"/>
<path fill="#603839" opacity="1.000000" stroke="none" 
	d="
M140.725815,200.083252 
	C140.500000,199.566620 140.274185,199.049988 139.979980,198.256744 
	C139.922241,178.300232 139.932907,158.620331 139.997726,138.199142 
	C140.275162,136.944580 140.498444,136.431305 140.814240,136.384918 
	C140.846420,157.928970 140.786118,179.006104 140.725815,200.083252 
z"/>
<path fill="#623536" opacity="1.000000" stroke="none" 
	d="
M140.067856,93.021141 
	C139.881226,92.987251 139.694611,92.953354 139.230743,92.850082 
	C139.432938,86.427803 139.912369,80.074883 140.563354,73.351723 
	C140.856979,79.027100 140.979095,85.072708 141.185120,91.584641 
	C141.269058,92.050964 141.136536,92.509033 140.836639,92.762573 
	C140.536728,93.016121 140.067856,93.021141 140.067856,93.021141 
z"/>
<path fill="#333435" opacity="1.000000" stroke="none" 
	d="
M140.721741,135.918015 
	C140.498444,136.431305 140.275162,136.944580 139.982300,137.730988 
	C139.282043,134.936417 138.651382,131.868713 138.030029,128.346771 
	C138.431229,127.929237 138.823120,127.965958 139.614944,127.960686 
	C140.014893,127.918686 140.259705,127.940323 140.172409,128.179169 
	C140.073395,128.587143 140.061676,128.756271 140.045090,129.250519 
	C140.290817,130.394577 140.541412,131.213531 140.811646,132.421310 
	C140.794769,133.846100 140.758255,134.882065 140.721741,135.918015 
z"/>
<path fill="#623536" opacity="1.000000" stroke="none" 
	d="
M140.593979,68.177795 
	C140.774261,68.455505 140.821396,68.917442 140.788849,69.721497 
	C140.626373,69.496422 140.543594,68.929214 140.593979,68.177795 
z"/>
<path fill="#D96161" opacity="1.000000" stroke="none" 
	d="
M140.814240,136.384918 
	C140.758255,134.882065 140.794769,133.846100 140.901413,132.084198 
	C141.019821,130.896011 141.068085,130.433762 141.333160,129.983047 
	C141.549957,129.994583 141.983429,130.020035 141.983429,130.020035 
	C141.982285,155.027298 141.981140,180.034546 141.775269,205.518799 
	C141.570511,205.995804 141.171646,206.012772 141.101166,205.675018 
	C140.929230,204.889328 140.827759,204.441391 140.726288,203.993469 
	C140.751495,202.949600 140.776688,201.905746 140.763855,200.472565 
	C140.786118,179.006104 140.846420,157.928970 140.814240,136.384918 
z"/>
<path fill="#C26D64" opacity="1.000000" stroke="none" 
	d="
M140.048218,93.487320 
	C140.067856,93.021141 140.536728,93.016121 140.770020,92.991508 
	C141.029373,104.356171 141.055450,115.745453 140.868118,127.570068 
	C140.654709,128.005417 140.259705,127.940323 140.259705,127.940323 
	C140.259705,127.940323 140.014893,127.918686 139.909515,127.982193 
	C139.878952,116.681633 139.953766,105.317558 140.048218,93.487320 
z"/>
<path fill="#ED6767" opacity="1.000000" stroke="none" 
	d="
M266.704163,80.346596 
	C266.893860,85.015335 266.895813,90.048050 266.834137,95.542404 
	C266.685822,90.906219 266.601105,85.808395 266.704163,80.346596 
z"/>
<path fill="#EC6160" opacity="1.000000" stroke="none" 
	d="
M141.171661,206.012772 
	C141.171646,206.012772 141.570511,205.995804 141.769562,205.985947 
	C141.818939,207.105164 141.669281,208.234253 141.362518,209.660461 
	C141.004410,209.754227 140.798782,209.555634 140.415512,209.236725 
	C140.168152,208.930588 140.093781,208.749588 140.257599,208.109268 
	C140.721069,207.104233 140.946365,206.558502 141.171661,206.012772 
z"/>
<path fill="#ED6767" opacity="1.000000" stroke="none" 
	d="
M265.978271,68.414536 
	C266.289948,69.149689 266.611206,70.229187 266.898926,71.660110 
	C266.572845,70.927315 266.280365,69.843094 265.978271,68.414536 
z"/>
<path fill="#EB635E" opacity="1.000000" stroke="none" 
	d="
M141.871521,129.808319 
	C141.983429,130.020035 141.549957,129.994583 141.247498,129.783264 
	C140.945023,129.571930 140.851608,129.146988 140.932877,129.069214 
	C141.014145,128.991440 141.178482,128.837814 141.178482,128.837814 
	C141.402435,129.067581 141.596146,129.320526 141.871521,129.808319 
z"/>
<path fill="#EB635E" opacity="1.000000" stroke="none" 
	d="
M140.172409,128.179169 
	C140.259705,127.940323 140.654709,128.005417 140.851868,128.043671 
	C141.049026,128.081924 141.101685,128.462814 141.140076,128.650314 
	C141.178482,128.837814 141.014145,128.991440 140.731400,129.017700 
	C140.448654,129.043976 140.049973,128.925400 140.049973,128.925400 
	C140.061676,128.756271 140.073395,128.587143 140.172409,128.179169 
z"/>
<path fill="#EC6160" opacity="1.000000" stroke="none" 
	d="
M141.218048,212.886322 
	C141.143539,212.836700 141.136398,212.669617 141.147537,212.252899 
	C141.330353,212.241394 141.370224,212.496597 141.218048,212.886322 
z"/>
<path fill="#603839" opacity="1.000000" stroke="none" 
	d="
M141.101181,205.675018 
	C140.946365,206.558502 140.721069,207.104233 140.249435,207.815826 
	C140.139954,206.854736 140.276825,205.727783 140.569992,204.297150 
	C140.827759,204.441391 140.929230,204.889328 141.101181,205.675018 
z"/>
<path fill="#603839" opacity="1.000000" stroke="none" 
	d="
M140.045090,129.250519 
	C140.049973,128.925400 140.448654,129.043976 140.650131,129.095490 
	C140.851608,129.146988 140.945023,129.571930 141.030685,129.771729 
	C141.068085,130.433762 141.019821,130.896011 140.881790,131.695374 
	C140.541412,131.213531 140.290817,130.394577 140.045090,129.250519 
z"/>
</svg>